<svg xmlns="http://www.w3.org/2000/svg" viewBox="0 0 520 720">
  <rect width="520" height="720" fill="#b4aaa0"/>
  <rect x="338" y="58" width="150" height="580" fill="#8b8178"/>
  <circle cx="220" cy="160" r="72" fill="#e4bcae"/>
  <path d="M126 180c4-90 46-128 116-103 40 15 60 58 52 115-30-38-75-50-145-17Z" fill="#171719"/>
  <rect x="165" y="146" width="52" height="24" rx="12" fill="#111"/>
  <rect x="230" y="146" width="52" height="24" rx="12" fill="#111"/>
  <path d="M58 690c18-177 86-275 189-255 75 14 129 96 148 255Z" fill="#eee8df"/>
  <path d="M85 690h311l-25-170c-81 36-166 37-259 0Z" fill="#304052"/>
  <rect x="322" y="151" width="77" height="106" rx="14" fill="#d6b69b"/>
  <circle cx="374" cy="173" r="8" fill="#34261f"/>
  <path d="M274 321c55 31 102 35 141 13" stroke="#111" stroke-width="11" stroke-linecap="round" opacity=".85"/>
  <rect x="380" y="387" width="90" height="118" rx="14" fill="#df9bbf"/>
</svg>
