<svg xmlns="http://www.w3.org/2000/svg" viewBox="0 0 640 360">
  <defs><linearGradient id="n" x1="0" y1="0" x2="1" y2="1"><stop stop-color="#261c35"/><stop offset=".7" stop-color="#11131b"/></linearGradient></defs>
  <rect width="640" height="360" fill="url(#n)"/>
  <path d="M0 284h640v76H0Z" fill="#0d0d10"/>
  <g fill="#0d0d10">
    <path d="M86 332 105 78h8l16 254Z"/><path d="M245 332 260 54h9l19 278Z"/><path d="M472 332 488 92h9l18 240Z"/>
    <path d="M110 82c-35-15-54-34-66-57 40 5 64 19 79 40 25-33 58-48 100-50-26 35-58 57-96 68 31 2 59 14 85 35-38 4-69-2-102-36Z"/>
    <path d="M264 56c-42-18-62-38-76-64 45 5 73 20 89 45 30-37 67-54 113-56-29 38-65 60-108 72 37 3 71 17 99 42-43 4-78-3-117-39Z"/>
    <path d="M492 92c-33-14-50-31-62-52 36 4 59 17 73 37 23-30 52-44 90-46-23 31-51 50-86 59 28 3 54 14 77 34-34 4-62-2-92-32Z"/>
  </g>
  <circle cx="420" cy="102" r="11" fill="#ffe3a1"/>
</svg>
