<svg xmlns="http://www.w3.org/2000/svg" viewBox="0 0 520 720">
  <defs><linearGradient id="sky" x1="0" y1="0" x2="0" y2="1"><stop stop-color="#8a3c7c"/><stop offset=".5" stop-color="#ff7e62"/><stop offset="1" stop-color="#151726"/></linearGradient></defs>
  <rect width="520" height="720" fill="url(#sky)"/>
  <path d="M0 585h520v135H0Z" fill="#11131a"/>
  <g fill="#11131a">
    <path d="M88 680 108 214h12l16 466Z"/><path d="M232 680 252 188h12l16 492Z"/><path d="M386 680 402 260h12l20 420Z"/>
    <path d="M114 214c-42-18-56-32-71-55 43 4 69 17 85 40 27-36 61-51 105-52-28 31-60 50-100 61 33 2 64 14 93 37-43 5-74 0-112-31Z"/>
    <path d="M258 188c-46-23-65-45-82-74 51 5 82 23 101 51 32-42 72-59 124-62-31 39-71 63-119 76 42 3 79 18 111 46-49 6-88-2-135-37Z"/>
    <path d="M408 260c-37-16-55-35-68-59 41 4 67 18 84 42 23-32 55-48 96-52-24 34-55 55-93 66 29 3 56 16 80 38-38 5-68-2-99-35Z"/>
  </g>
</svg>
